<svg xmlns="http://www.w3.org/2000/svg" xmlns:xlink="http://www.w3.org/1999/xlink" version="1.1" x="0px" y="0px" viewBox="0 0 1024 1280" style="enable-background:new 0 0 1024 1024;" xml:space="preserve"><g><path d="M267.2,927.1c-0.4-90.1-23.7-155.1-48.4-223.9c-23.5-65.4-47.8-133.1-51.7-224.7l20-0.9c3.8,88.6,27.6,154.8,50.5,218.8   c24.2,67.4,49.2,137,49.6,230.6L267.2,927.1z"/><path d="M100.6,331.2l-15.8-12.3c26.2-33.6,64.2-60.5,116.1-82.5c43.3-18.3,87.2-29.3,122.4-38.1c25.7-6.4,47.9-12,55.4-17.2   c22.5-15.5,22.6-57.6,20.6-81.4l19.9-1.6c2.8,34.3,0,79.4-29.2,99.5c-10.5,7.3-32.1,12.7-61.9,20.1   C259.4,234.9,155.4,260.9,100.6,331.2z"/><path d="M923.4,331c-54.8-70.3-158.9-96.3-227.8-113.5c-29.8-7.4-51.3-12.8-61.8-20.1c-29.2-20.1-32-65.2-29.2-99.5l19.9,1.6   c-1.9,23.8-1.9,65.9,20.6,81.3c7.5,5.2,29.7,10.7,55.3,17.1c35.3,8.8,79.2,19.8,122.5,38.1c52,22,90,48.9,116.2,82.5L923.4,331z"/><rect x="502" y="583.9" width="20" height="68.8"/><rect x="502" y="718.5" width="20" height="208.6"/><path d="M316,499c-2.7,0-5.5-0.1-8.2-0.2l-29.9-1.8l1.2-20l29.9,1.8c38.3,2.3,75.1-14.4,98.5-44.6l8.5-11   c10.8-13.9,18.7-71.3,18.7-95.9h20c0,21.7-7,87.7-22.9,108.1l-8.5,11C397.6,479.7,358,499,316,499z"/><path d="M708,499c-41.9,0-81.6-19.3-107.3-52.6l-8.5-11c-15.8-20.4-22.9-86.5-22.9-108.1h20c0,24.6,7.9,81.9,18.7,95.9l8.5,11   c21.9,28.4,55.7,44.8,91.5,44.8c2.3,0,4.7-0.1,7-0.2l29.9-1.8l1.2,20l-29.9,1.8C713.5,498.9,710.7,499,708,499z"/><path d="M757,927.1l-20-0.1c0.5-93.5,25.4-160.4,49.6-225.1c23-61.6,46.8-125.4,50.6-214l20,0.9c-3.9,91.8-28.3,157-51.8,220.1   C780.7,774.9,757.5,837.2,757,927.1z"/><path d="M882.3,638c-36.5-33.2-48.4-99.8-48.9-102.6l19.7-3.4c0.1,0.6,11.3,62.6,42.7,91.2L882.3,638z"/><path d="M143.2,638l-13.5-14.8c31.5-28.7,42.6-90.6,42.7-91.2l19.7,3.4C191.7,538.2,179.7,604.8,143.2,638z"/></g><text x="0" y="1039" fill="#000000" font-size="5px" font-weight="bold" font-family="'Helvetica Neue', Helvetica, Arial-Unicode, Arial, Sans-serif">Created by IconPai</text><text x="0" y="1044" fill="#000000" font-size="5px" font-weight="bold" font-family="'Helvetica Neue', Helvetica, Arial-Unicode, Arial, Sans-serif">from the Noun Project</text></svg>