<svg xmlns="http://www.w3.org/2000/svg" xmlns:xlink="http://www.w3.org/1999/xlink" xml:space="preserve" version="1.1" style="shape-rendering:geometricPrecision;text-rendering:geometricPrecision;image-rendering:optimizeQuality;" viewBox="0 0 50000 62500" x="0px" y="0px" fill-rule="evenodd" clip-rule="evenodd"><defs><style type="text/css">
   
    .fil0 {fill:black;fill-rule:nonzero}
   
  </style></defs><g><path class="fil0" d="M24487.14 28176.83c-225.78,-157.66 -404.97,-366.54 -621.07,-515.84 -538.29,-371.93 -1231.11,-567.3 -1886.3,-669.04 -589.28,-91.51 -1146.48,-83.21 -1536.84,-107.33 -299.69,-18.52 -274.97,-8 -303.9,196.67 -33.34,235.88 -65.07,467.19 -85.99,693.13 -129.27,1396.78 -258.48,2808.3 -103.22,4208.96 312.95,2823.35 119.23,3797.59 -115.12,4976.16 -422.53,2124.94 -442.18,3591.36 -187.17,5733.02 138.4,1162.21 271.13,2276.92 77.99,3472.63 -153.21,948.66 -896.31,1608.43 -1600.5,2132.16 -552.38,399.2 551.98,381.58 809.38,423.22 330.12,53.4 601.75,97.34 909.65,-152.07 210.02,-170.12 434.18,-198.24 643.98,-224.56 215.23,-26.99 403.07,-50.58 374.28,-512.71 -56.34,-903.17 1.38,-1792.75 111.65,-2688.6 73.62,-1765.12 764.29,-3326.22 932.79,-5085.93 56.24,-587.25 44.33,-1084.87 11.24,-1670.6 -14.9,-263.87 -14.62,-131.14 -168.87,-306.2 -56.01,-63.57 -78.9,-156.42 -52.33,-245.2 96.61,-320.48 233.81,-635.34 361.36,-894.48 185.84,-377.57 382.96,-671.03 537.4,-1069.05 284.11,-732.15 306.35,-1475.1 439.06,-2238.32 184.53,-1061.14 99.58,-1929.73 429.43,-3080.2 53.84,-188.04 323.93,-101.37 270.06,86.72 -85.42,297.96 -147.61,580.42 -194.83,854.68 -126.44,734.16 -104,618.5 119.14,21.41 51.89,-138.83 104.71,-277.9 157.76,-417.57 303.45,-798.92 614.77,-1618.57 794.53,-2513.75 67.56,-336.59 112.51,-242.49 -123.56,-407.31zm9245.97 -2597.17c-137.95,321.58 -197.57,585.31 -234.42,773.6 -110.51,564.62 252.5,203.8 356.44,-17.12 309.48,-762.27 626.15,-643.43 704.68,17.94 32.18,252.72 41.85,488.31 33.62,739.46 -15.49,472.03 -87.5,952.56 -152.22,1419.28 -106.38,767.12 357.37,789.23 463.14,238.38 140.05,-729.36 191.87,-1569.16 169.29,-2406.34 -41.73,-1547.16 -396.6,-2813.86 -671.9,-4303.31 -184.71,-999.22 -338.64,-1831.72 -840.08,-3209.08 -219.8,-474.25 -445.9,-953.05 -717.88,-1396.64 -304.87,-497.19 -342.82,-944.48 -384.68,-1438.12 -59.92,-706.47 -222.52,-1392.02 -560.84,-2009.2 -148.09,-270.09 -50.29,-151.84 -240.46,-214.56 -98.74,-32.59 -168.83,-131.96 -165.01,-246.69 13.04,-359.77 -90.25,-858.31 -181.55,-1236.63 -90.72,-375.75 -210.3,-742.22 -380.66,-1061.67 -473.31,-887.57 -1452.84,-1142.23 -2268.35,-1552.84 -858.81,-432.41 -1984.52,-734.68 -2238.24,-1824.08 -115.16,-494.51 -104.46,-1065.33 -50.53,-1446.83 71.58,-506.41 144.43,-531.69 342.99,-600.58 271.87,-94.29 301.46,-494.95 352.97,-749.21l0 -0.97c41.12,-201.75 5.67,-252.42 -29.07,-302.06 -90.82,-129.78 -180.02,-257.24 -121.99,-602.55l0.09 0.02c208.01,-1527.96 -517.66,-2916.59 -2055.4,-2916.59 -1537.73,0 -2263.4,1388.63 -2055.4,2916.59l0.09 -0.02c24.73,147.17 22.73,254.77 5.25,339.84 -62.24,302.94 -231.18,196.21 -144.76,622.7 56.51,279.55 110.05,544.33 228.52,633.98 245.49,190.67 325.61,90.52 450.67,622.86 65.8,291.2 225.49,537.89 437.53,714.78 236.24,197.07 535.95,307.03 842.74,295.69 309.37,-10.27 324.1,487.77 14.75,498.04 -387.74,14.33 -765.93,-111.86 -1074.09,-342.03 -200.95,-150.06 -158.72,-220.95 -193.57,59.88 -17.81,143.41 -45.63,289.09 -87.27,429.5 -296.94,1001.21 -2401.46,1932.33 -3264.35,2278.42l0.09 0.23c-885,376.25 -1215.53,1374.31 -1401.05,2287.38 -63.53,312.92 -130.47,610.62 -118.68,936.15 3.73,112.11 -63.11,209.57 -158.28,244.35 -156.43,57.15 -108.1,-12.9 -213.36,195.13 -95.41,188.57 -166.37,353.07 -270.39,753.23l-5.17 19.88 -1.28 3.56c-313.81,871.42 -133.38,1770.27 -698.82,2692.42 -271.98,443.59 -498.08,922.39 -717.88,1396.64 -628.33,1725.91 -801.96,3271.31 -1209.35,5017.05 -172.64,739.78 -278.89,1615.18 -302.63,2495.34 -22.58,837.18 29.24,1676.98 169.29,2406.34 105.77,550.85 569.52,528.74 463.14,-238.38 -66.89,-482.38 -116.67,-854.86 -140.25,-1190.63 -23.98,-341.43 -20.09,-640.37 21.65,-968.11 88.45,-694.78 560.02,-600.47 787.14,27.04l-0.48 0.19c190.52,470.43 353.35,322.74 276.91,-81.5 -34.81,-184.11 -109.08,-422.24 -236.87,-720.15 -95.87,-223.49 -221.35,-556.6 -272.02,-789.47 -37.12,-170.57 -100.33,-536.37 46.36,-665.08 127.71,-112.04 102.64,33.75 180.51,-190.19 125.43,-360.63 236.96,-598.34 405.24,-967.21 278.21,-609.8 603.86,-1204.98 906.89,-1798.68 367.69,-720.42 717.43,-1447.17 910.82,-2093.42 66.25,-263.29 68.74,-550.4 -16.98,-809.11 -55.33,-168.09 68.78,-339.38 233.46,-331.05 156.73,7.93 88.94,117.73 184.98,-113.05 61.6,-148.07 126.55,-296.75 191.76,-446.04 117.02,-267.88 228.25,-533.68 335.97,-805.67 230.47,-581.67 462.19,-1164.36 601.3,-1779.95 104.29,-461.44 140.07,-843.41 134.43,-1139.1 -6.05,-327.57 464.33,-337.29 470.38,-9.76 6.35,332.6 -32.83,757.49 -147.32,1264.1 -19.35,85.59 -40.8,173.44 -64.47,263.5 -133.19,506.49 -119.66,291.43 50.81,787.96 137.8,401.38 325.24,1047.3 432.81,1785.25 92.6,635.27 131.68,1350.3 39.75,2057.95l0 1.96c-87.2,640.6 -42.11,1014.85 16.76,1503.41 20.93,173.68 43.51,360.98 62.62,573.36 35.15,390.42 -113.26,334.03 270.17,444.55 2158.88,622.19 5399.58,540.49 7550.2,-107.73 304.08,-91.62 210.15,-30.35 237.73,-336.82 19.11,-212.38 41.69,-399.68 62.62,-573.36 58.87,-488.56 103.96,-862.81 16.76,-1503.41l0 -1.96c-92.89,-714.96 -50.62,-1437.51 46.35,-2076.9 100.6,-663.36 270.54,-1251.09 411.06,-1651.97 207.41,-591.73 211.95,-327.08 53.31,-943.57 -122.73,-477.07 -210.51,-991.42 -201.06,-1486.32 6.05,-327.53 476.44,-317.81 470.38,9.76 -5.63,295.69 30.14,677.66 134.43,1139.1 36.97,163.57 82.76,337.4 138.62,521.26 199.81,657.61 530.57,1446.28 800.58,2064.43 45.3,103.7 90.48,207.11 134.49,310.22 207.97,487.19 80.01,167.8 336.6,262.47 122.76,45.3 187.59,187.4 144.81,317.38 -41.16,124.2 -64.13,262.82 -65.56,408.7 -3.37,346.37 124.02,671.29 248.74,984.77 394.49,991.55 936.66,1913.41 1403.72,2867.14 115.94,236.78 407.25,902.54 422.55,939.02 66.41,158.32 127.24,303.28 178.91,440.99 100.91,269.04 62.84,91.79 202,224.31 43.61,41.53 72.75,100.25 77.45,167.07 18.42,252.19 -61.62,568.55 -151.35,844.51 -48.07,147.87 -100.27,294.23 -161.35,436.65zm-17114 -1330.34c-107.79,357.16 -115.04,676.16 77.6,1125.26 306.02,713.45 344.17,1200.43 257.59,1470.29 -83.57,260.5 -303.51,411.72 -561.05,331.92 -102.8,-31.84 -212.07,-101.87 -306.04,-214.89 -210.47,-253.1 -220.32,-327.29 -211.02,52.6 2.16,88.1 6.12,178.37 12.74,272.53 22.19,316.03 70.94,680.33 136.57,1153.53 200.01,1442.16 -1169.36,1564.59 -1391.01,410.24 -147.4,-767.58 -202.07,-1646.59 -178.52,-2519.62 24.74,-917 135.52,-1829.41 315.54,-2600.8 414.48,-1776.16 588.71,-3324.09 1230.51,-5085.07l2.76 -7.57 5.54 -11.97c230.04,-496.7 466.31,-996.89 751.15,-1461.42 487.82,-795.59 357.19,-1773.18 651.51,-2595.36 138.14,-525.22 267.21,-773.33 388.88,-1007.23 191.06,-367.24 284.74,-716.81 369.59,-1122.75 224.26,-1074.74 641.04,-2157.95 1676.56,-2598.18l5.53 -1.95c760.97,-302.3 2818.23,-1184.94 3017.25,-2091.04 92.05,-419.09 65.26,-915.75 15.15,-1270.37 -29.88,-84.11 -16.38,-175.89 -262.2,-324.85 -268.36,-203.06 -340.51,-559.93 -416.68,-936.72 -62.42,-308.07 -88.39,-490.5 100.53,-760.39 29.38,-41.98 58.23,-83.24 35.3,-219.73l-0.92 -7.81c-254.13,-1843.18 691.28,-3494.7 2521.08,-3494.7 1829.82,0 2775.21,1651.52 2521.09,3494.7l-0.93 7.81c-22.93,136.49 5.92,177.75 35.3,219.73 98.01,140.02 197.99,282.88 112.08,704.4l-0.19 -0.04c-70.4,347.52 -136.11,771.84 -428.04,992.75 -286.38,118.84 -238.86,146.46 -262.19,324.85 -47.28,334.41 -57.48,831.25 41.31,1255.43 197.65,848.7 1262.97,1130.1 1981.83,1492.04 951.98,479.31 1921.41,718.41 2476.79,1759.88 255.82,479.69 406.47,1032.94 512.86,1574.77 111.06,565.62 248.95,812.5 397.48,1078.38 414.86,742.71 604.1,1455.05 677.21,2316.78 36.29,427.78 69.17,815.41 310.88,1209.6 284.84,464.53 521.11,964.72 751.15,1461.42l5.54 11.97 2.76 7.57c520.8,1428.99 678.01,2279.4 866.77,3300.54 281.13,1520.78 636.6,2803.14 679.28,4385.33 23.55,873.03 -31.12,1752.04 -178.52,2519.62 -221.65,1154.35 -1591.02,1031.92 -1391.01,-410.24 63.22,-455.83 127.46,-906.38 147.74,-1366.96 31.64,-718.6 9.79,-356.31 -216.74,-101.22 -89.58,100.88 -195.26,168.13 -298.75,204.41 -257.54,79.8 -477.48,-71.42 -561.05,-331.92 -195.37,-608.93 240.07,-1241.67 365.45,-1817.77 105.74,-485.65 -32.14,-827.72 -253.51,-1359.79 -68.07,-162.28 -277.87,-639.12 -419.09,-927.69 -475.45,-971.39 -1025.44,-1906.58 -1423.63,-2918.73 -126.59,-321.75 -229.85,-635.12 -297.34,-933.45 -91.57,-404.99 -286.24,-850.6 -483.44,-1302.03 -131.31,-300.64 -251.62,-599.03 -371.64,-899.6 -205.51,-514.67 -161.47,-564.37 -315.27,17.19 -80.62,304.87 -164.07,680.01 -227.6,1098.86 -90.57,597.1 -130.36,1269.53 -44.74,1930.46l0.24 -0.04c95.69,702.96 46.92,1107.76 -16.76,1636.23 -20.09,166.65 -41.75,346.4 -60.77,557.74 -30.51,338.88 104.15,556.3 178.96,865.95 65.78,272.23 80.26,478.34 96.51,709.81 52.62,748.84 193.18,1486.44 330.48,2222.05 78.09,418.37 155.75,834.44 218.04,1247.14 140.12,928.43 215.38,1949.61 254.11,2885.84 30.04,726.11 23.56,1456.54 -56.97,2182.98 -304.34,2745.63 -117.86,3683.45 107.74,4817.96 433.53,2180.36 454.4,3699.26 192.7,5897.08 -133.66,1122.55 -261.87,2199.2 -79.84,3326.15 62.71,388.28 259.14,723.37 510.65,1014.69 262.96,304.59 591.6,566.75 896.15,793.25 230.91,171.71 353.97,343.34 399.28,503.5 138.72,539.86 -296.85,812.56 -867.06,757.35 -146.59,7.84 -407.12,42.79 -542.65,64.71 -437.79,70.82 -798.03,129.09 -1265.68,-249.73 -106.76,-86.47 -265.14,-106.35 -413.4,-124.94 -452.54,-56.76 -847.51,-106.34 -789.31,-1040.07 27.58,-442.19 27.49,-872.19 6.98,-1300.7 -48.18,-1005.98 -204.35,-2476.54 -449.06,-3407.71 -356.4,-1356.06 -529.23,-2241.33 -600.54,-2986.04 -71.85,-750.34 -40.74,-1346.5 10.29,-2128 -6.9,-814.2 -403.2,-1239.94 -665.87,-1916.89 -228.04,-587.65 -292.26,-1081.07 -363.57,-1629.06 -29.25,-224.87 -59.78,-459.36 -103.17,-708.88 -144.2,-829.24 -445.99,-1623.91 -755.93,-2440.09 -220.3,-580.12 -444.63,-1170.85 -623.48,-1798.41 -159.43,-559.46 -86.48,-561.89 -245.74,-1.63 -178.98,629.53 -403.44,1220.55 -623.85,1800.87 -309.89,815.88 -611.58,1610.2 -755.74,2439.26 -140.87,810.12 -161.91,1552.38 -466.74,2337.94 -143.57,370.04 -335.81,671.01 -484.94,1027.71 -104.08,248.96 -177.82,521.9 -180.93,889.18 51.03,781.5 82.14,1377.66 10.29,2128 -167.68,1751.15 -861.32,3333.51 -931.43,5067.97l-0.46 11.23 -1.39 11.23c-107.27,868.16 -163.93,1728.69 -109.34,2604.02 58.2,933.73 -336.77,983.31 -789.31,1040.07 -148.26,18.59 -306.64,38.47 -413.4,124.94 -467.65,378.82 -827.89,320.55 -1265.68,249.73 -434.27,-70.24 -1619.21,-81.61 -1409.71,-822.06 45.3,-160.15 168.36,-331.79 399.28,-503.5 587.67,-437.06 1238.39,-928.14 1406.8,-1807.94 182.03,-1126.95 53.82,-2203.6 -79.84,-3326.15 -261.7,-2197.82 -240.83,-3716.72 192.7,-5897.08 225.6,-1134.51 412.08,-2072.33 107.74,-4817.96 -159.16,-1435.86 -29.32,-2880.62 103.22,-4312.48 60.99,-658.86 185.92,-1328.17 311.96,-2003.48 120.67,-646.51 242.38,-1298.64 306.49,-1926.38 50.38,-493.59 53.44,-838.89 213.58,-1315.71 57.62,-171.61 107.17,-319.17 85.88,-555.72 -19.02,-211.34 -40.68,-391.09 -60.77,-557.74 -63.68,-528.47 -112.45,-933.27 -16.76,-1636.23l0.24 0.04c84.28,-650.51 46.94,-1317.08 -39.99,-1913.45 -53.86,-369.49 -128.38,-736.42 -221.74,-1097.01 -161.95,-625.35 -118.04,-553.89 -339.48,3.24 -115.4,290.29 -233.02,574.08 -358.03,860.24 -197.19,451.45 -391.87,897.09 -483.45,1302.1 -195.53,864.58 -620.77,1717.36 -1029.78,2513.72 -297.98,580.17 -608.72,1167.98 -887.7,1766.45 -170.14,365.01 -324.55,679.87 -445.83,1081.71zm10391.6 9642.78c0.97,9.07 1.16,18.04 0.62,26.83 23.03,155.07 42.22,302.58 60.91,446.24 66.96,514.53 127.26,977.84 332.21,1506 148.68,383.17 357.47,703.85 536.81,1068.06 127.75,259.46 264.98,573.92 361.14,892.15 28.5,94.02 1.47,192.83 -61.77,256.7 -156.54,158.01 -136.61,-90.14 -160.35,318.63 -32.39,557.03 -42.3,1069.74 12.97,1649.99 68.48,715.19 236.98,1574.99 585.76,2902.04 290.59,1105.81 410.82,2371.78 465.66,3517.09 21.45,448.23 21.65,896.48 -6.98,1355.4 -28.79,462.13 159.05,485.72 374.28,512.71 209.8,26.32 433.96,54.44 643.98,224.56 307.9,249.41 579.53,205.47 909.65,152.07 275.93,-44.64 398.18,-63.22 649.16,-41.58 340.13,29.32 524.52,-110.72 160.22,-381.64 -323.66,-240.71 -675.62,-522.45 -971.79,-865.51 -307.63,-356.32 -548.93,-772.67 -628.71,-1266.65 -193.14,-1195.71 -60.41,-2310.42 77.99,-3472.63 255.01,-2141.66 235.36,-3608.08 -187.17,-5733.02 -234.35,-1178.57 -428.07,-2152.81 -115.12,-4976.16 77.76,-701.46 84.06,-1405.55 55.14,-2104.86 -36.67,-886.52 -100.41,-1931.67 -246.12,-2808.86 -33.26,-200.24 13.24,-185.03 -277.6,-184.96 -1113.59,0.29 -2504.68,133.76 -3434.63,776.29 -227.83,157.41 -398.75,382.05 -633.93,536.38 -234.67,153.96 -194.26,31.45 -123.16,385.99 179.96,897.46 490.79,1715.9 793.75,2513.7 47.21,124.3 94.23,248.11 140.57,371.71 279.46,745.29 320.89,920.7 152.38,-24.59 -23.22,-130.33 -49.93,-262.6 -80.97,-397.57 -30.54,-132.86 -65.31,-268.37 -105.13,-407.24 -53.86,-188.09 216.22,-274.76 270.06,-86.72 253.37,883.7 309.12,1620.41 368.18,2400.94 22.98,303.78 46.49,614.3 81.99,938.51zm1939.65 5514.17c-58.24,-186.52 209.61,-280.28 267.85,-93.76 211.45,671.34 192.78,1707.3 9.85,2384.49 -50.95,189.59 -323.23,107.57 -272.27,-82.04 167.8,-621.22 188.64,-1592.52 -5.43,-2208.69zm-8138.97 -93.76c58.24,-186.52 326.09,-92.76 267.85,93.76 -194.07,616.17 -173.23,1587.47 -5.43,2208.69 50.96,189.61 -221.32,271.63 -272.27,82.04 -182.93,-677.19 -201.6,-1713.15 9.85,-2384.49zm8703.51 -1895.25c64.04,-184.97 329.69,-81.87 265.64,103.12l-0.6 1.7c-134.51,385.39 -618.32,493.67 -952.97,364.6l-2.77 -1.07c-174.7,-67.05 -78.42,-348.31 96.3,-281.26l2.77 1.07c184.07,71 513.81,34.83 591.03,-186.46l0.6 -1.7zm-8410.52 475.86c-332.37,103.86 -788.66,11.27 -929.03,-353.15 -79.95,-207.57 182.37,-300.62 250.69,-141.67 99.38,231.24 360.96,291.29 583.2,213.1 212.83,-74.99 261.16,229.84 95.14,281.72zm6246.74 -19392.54c35.78,-165.29 293.62,-137.2 278.52,34.94 -45.03,513.15 -1018.22,745.82 -1383.83,667.02 -181.97,-39.3 -125.53,-332.26 56.44,-292.96 252.85,54.48 981.56,-98.31 1048.87,-409zm277.68 -1395.03c-46.71,488.88 -1008.5,730.79 -1382.99,650.08 -181.97,-39.3 -125.53,-332.26 56.44,-292.96 218.47,47.07 978.98,-116.62 1042.85,-372.65 64.5,-260.11 298.21,-140.56 283.7,15.53zm-5102.06 1446.91c-17.59,-189.29 244.68,-222.94 278.49,-47.99 57.09,296.24 809.83,456.44 1048.07,405.11 181.97,-39.3 238.41,253.66 56.44,292.96 -374.5,80.71 -1336.28,-161.2 -1383,-650.08zm2411.72 -1793.9c0,-196.53 282.23,-196.53 282.23,0l2.75 2783.42c0,196.53 -282.22,196.53 -282.22,0l-2.76 -2783.42zm-2411.72 346.99c-17.04,-183.43 236.88,-228 277.77,-50.23 70.64,307.76 793.99,462.26 1048.79,407.35 181.97,-39.3 238.41,253.66 56.44,292.96 -379.35,81.76 -1336.54,-163.88 -1383,-650.08zm2559.83 3556.82c129.73,0 234.9,75.82 234.9,169.33 0,93.51 -105.17,169.33 -234.9,169.33 -129.73,0 -234.9,-75.82 -234.9,-169.33 0,-93.51 105.17,-169.33 234.9,-169.33zm1367.53 -11474.99c119.95,-150.1 335.79,43.25 215.83,193.36 -305.99,383.42 -1084.27,420.52 -1127.41,729.34 -26.92,194.98 -306.94,151.65 -280.01,-43.36 84.87,-607.68 873.23,-480.43 1191.59,-879.34zm-3164.79 193.36c-119.96,-150.11 95.89,-343.46 215.83,-193.36 318.37,398.91 1106.73,271.66 1191.6,879.34 26.93,195.01 -253.09,238.34 -280.02,43.36 -43.13,-308.82 -821.42,-345.92 -1127.41,-729.34zm1309.45 18525.98c334.23,242.64 456.75,249.08 791.64,16.95 312.46,-216.61 528.27,-485.57 638.24,-869.41 85.79,-299.48 93.99,-592.24 78.81,-758.55 -17.45,-195.78 263.68,-223.87 281.13,-28.12 15.16,166.15 10.41,440.48 -54.34,733.03 -62.64,283 -139.34,265.68 147.53,130.5 927.47,-437.17 2059.98,-543.91 3077.33,-545.26 259.6,-0.3 215.63,-0.7 188.7,-183.67 -28.57,-194.13 -70.88,-387.48 -107.27,-582.43 -141.06,-755.78 -283.84,-1513.18 -337.85,-2282.59 -14.44,-205.75 -27.31,-388.97 -83.6,-621.93 -19.33,-79.98 -44.25,-157.28 -69.76,-234.24 -97.45,-293.97 -29.87,-251.23 -315.32,-166.45 -2199.96,653.59 -5489.26,732.7 -7692.67,90.05 -295.51,-86.19 -247.29,-111.68 -337.1,234.22 -89.07,342.91 -94.06,632.7 -132.73,1011.6 -67.11,657.12 -190.11,1316.07 -312.03,1969.34 -31.33,167.84 -58.68,336.17 -92.74,501.84 -44.57,216.81 -43.82,263.73 201.2,264.2 400.6,0.77 961.83,17.9 1552.79,109.67 510.92,79.34 1045.78,214.37 1524.12,442.08 272.48,129.68 199.45,143.31 138.51,-126.49 -66.97,-296.45 -72.02,-575.34 -56.68,-743.47 17.45,-195.75 298.58,-167.66 281.13,28.12 -19.71,216.04 2.57,465.07 62.8,698.24 107.51,416.24 291.88,668.59 628.16,912.77zm3377.51 -13746.6c100.75,0 182.42,86.47 182.42,193.14 0,106.67 -81.67,193.14 -182.42,193.14 -100.74,0 -182.41,-86.47 -182.41,-193.14 0,-106.67 81.67,-193.14 182.41,-193.14zm-5814.99 0c100.75,0 182.42,86.47 182.42,193.14 0,106.67 -81.67,193.14 -182.42,193.14 -100.75,0 -182.42,-86.47 -182.42,-193.14 0,-106.67 81.67,-193.14 182.42,-193.14zm2697.05 -1963.23c0,-197.31 283.34,-197.31 283.34,0l0 1545.16c0,197.31 -283.34,197.31 -283.34,0l0 -1545.16zm3996.83 2090.41c72.06,-181.11 332.17,-65.12 260.11,116.02 -532.05,1335.78 -2799.35,1091.42 -3639.94,308.49 -139.58,-130.07 47.45,-355.09 187.05,-225 694.13,646.44 2743.97,927.19 3192.78,-199.51zm-7969.67 117.78c-74.25,-180.34 184.74,-299.89 259,-119.54 469.03,1133.69 2602.97,849.33 3327.66,199.51 141.78,-127.01 324.39,101.52 182.63,228.52 -869.79,779.95 -3214.51,1032.61 -3769.29,-308.49z"/></g><text x="0" y="50015" fill="#000000" font-size="5px" font-weight="bold" font-family="'Helvetica Neue', Helvetica, Arial-Unicode, Arial, Sans-serif">Created by Oleksandr Panasovskyi</text><text x="0" y="50020" fill="#000000" font-size="5px" font-weight="bold" font-family="'Helvetica Neue', Helvetica, Arial-Unicode, Arial, Sans-serif">from the Noun Project</text></svg>